{
  "accessors": [
    {
      "bufferView": 2,
      "componentType": 5126,
      "count": 1577,
      "max": [
        131.71780395507813,
        92.02940368652344,
        374.0320129394531
      ],
      "min": [
        -131.7176971435547,
        -92.02940368652344,
        1.0023000240325928
      ],
      "type": "VEC3"
    },
    {
      "bufferView": 2,
      "byteOffset": 18924,
      "componentType": 5126,
      "count": 1577,
      "max": [
        1.0,
        1.0,
        1.0
      ],
      "min": [
        -1.0,
        -1.0,
        -1.0
      ],
      "type": "VEC3"
    },
    {
      "bufferView": 3,
      "componentType": 5126,
      "count": 1577,
      "max": [
        1.0,
        1.0,
        1.0,
        1.0
      ],
      "min": [
        -1.0,
        -1.0,
        -1.0,
        -1.0
      ],
      "type": "VEC4"
    },
    {
      "bufferView": 1,
      "componentType": 5126,
      "count": 1577,
      "max": [
        0.9955000281333923,
        0.9962000250816345
      ],
      "min": [
        0.004600000102072954,
        0.0034000000450760126
      ],
      "type": "VEC2"
    },
    {
      "bufferView": 0,
      "componentType": 5125,
      "count": 3054,
      "type": "SCALAR"
    },
    {
      "bufferView": 2,
      "byteOffset": 37848,
      "componentType": 5126,
      "count": 660,
      "max": [
        29.944700241088867,
        -77.37909698486328,
        331.34149169921875
      ],
      "min": [
        -30.066999435424805,
        -85.02149963378906,
        229.48240661621094
      ],
      "type": "VEC3"
    },
    {
      "bufferView": 2,
      "byteOffset": 45768,
      "componentType": 5126,
      "count": 660,
      "max": [
        1.0,
        0.9999998807907104,
        1.0
      ],
      "min": [
        -1.0,
        -0.9999998807907104,
        -1.0
      ],
      "type": "VEC3"
    },
    {
      "bufferView": 3,
      "byteOffset": 25232,
      "componentType": 5126,
      "count": 660,
      "max": [
        1.0,
        0.999998927116394,
        1.0,
        1.0
      ],
      "min": [
        -1.0,
        -0.9999997019767761,
        -1.0,
        -1.0
      ],
      "type": "VEC4"
    },
    {
      "bufferView": 1,
      "byteOffset": 12616,
      "componentType": 5126,
      "count": 660,
      "max": [
        0.9980999827384949,
        0.1941000074148178
      ],
      "min": [
        0.5918999910354614,
        0.006000000052154064
      ],
      "type": "VEC2"
    },
    {
      "bufferView": 0,
      "byteOffset": 12216,
      "componentType": 5125,
      "count": 2976,
      "type": "SCALAR"
    }
  ],
  "asset": {
    "extras": {
      "author": "soychicken0212 (https://sketchfab.com/soychicken0212)",
      "license": "CC-BY-4.0 (http://creativecommons.org/licenses/by/4.0/)",
      "source": "https://sketchfab.com/3d-models/drawer-f9047560c89e4228ab579cb3f22a6849",
      "title": "Drawer"
    },
    "generator": "Sketchfab-12.65.0",
    "version": "2.0"
  },
  "bufferViews": [
    {
      "buffer": 0,
      "byteLength": 24120,
      "name": "floatBufferViews",
      "target": 34963
    },
    {
      "buffer": 0,
      "byteLength": 17896,
      "byteOffset": 24120,
      "byteStride": 8,
      "name": "floatBufferViews",
      "target": 34962
    },
    {
      "buffer": 0,
      "byteLength": 53688,
      "byteOffset": 42016,
      "byteStride": 12,
      "name": "floatBufferViews",
      "target": 34962
    },
    {
      "buffer": 0,
      "byteLength": 35792,
      "byteOffset": 95704,
      "byteStride": 16,
      "name": "floatBufferViews",
      "target": 34962
    }
  ],
  "buffers": [
    {
      "byteLength": 131496,
      "uri": "scene.bin"
    }
  ],
  "images": [
    {
      "uri": "textures/01___Default_baseColor.png"
    },
    {
      "uri": "textures/01___Default_metallicRoughness.png"
    },
    {
      "uri": "textures/01___Default_normal.png"
    },
    {
      "uri": "textures/02___Default_metallicRoughness.png"
    }
  ],
  "materials": [
    {
      "doubleSided": true,
      "name": "01___Default",
      "normalTexture": {
        "index": 2
      },
      "pbrMetallicRoughness": {
        "baseColorTexture": {
          "index": 0
        },
        "metallicRoughnessTexture": {
          "index": 1
        }
      }
    },
    {
      "doubleSided": true,
      "name": "02___Default",
      "normalTexture": {
        "index": 2
      },
      "pbrMetallicRoughness": {
        "metallicRoughnessTexture": {
          "index": 3
        },
        "roughnessFactor": 0.6
      }
    }
  ],
  "meshes": [
    {
      "name": "Object_0",
      "primitives": [
        {
          "attributes": {
            "NORMAL": 1,
            "POSITION": 0,
            "TANGENT": 2,
            "TEXCOORD_0": 3
          },
          "indices": 4,
          "material": 0,
          "mode": 4
        }
      ]
    },
    {
      "name": "Object_1",
      "primitives": [
        {
          "attributes": {
            "NORMAL": 6,
            "POSITION": 5,
            "TANGENT": 7,
            "TEXCOORD_0": 8
          },
          "indices": 9,
          "material": 1,
          "mode": 4
        }
      ]
    }
  ],
  "nodes": [
    {
      "children": [
        1
      ],
      "matrix": [
        1.0,
        0.0,
        0.0,
        0.0,
        0.0,
        2.220446049250313e-16,
        -1.0,
        0.0,
        0.0,
        1.0,
        2.220446049250313e-16,
        0.0,
        0.0,
        0.0,
        0.0,
        1.0
      ],
      "name": "Sketchfab_model"
    },
    {
      "children": [
        2,
        3
      ],
      "name": "4380848de07042bbb543f57ae9d5bf2e.obj.cleaner.materialmerger.gles"
    },
    {
      "mesh": 0,
      "name": "Object_2"
    },
    {
      "mesh": 1,
      "name": "Object_3"
    }
  ],
  "samplers": [
    {
      "magFilter": 9729,
      "minFilter": 9987,
      "wrapS": 10497,
      "wrapT": 10497
    }
  ],
  "scene": 0,
  "scenes": [
    {
      "name": "Sketchfab_Scene",
      "nodes": [
        0
      ]
    }
  ],
  "textures": [
    {
      "sampler": 0,
      "source": 0
    },
    {
      "sampler": 0,
      "source": 1
    },
    {
      "sampler": 0,
      "source": 2
    },
    {
      "sampler": 0,
      "source": 3
    }
  ]
}
