{
  "accessors": [
    {
      "bufferView": 2,
      "componentType": 5126,
      "count": 8448,
      "max": [
        1.2364790439605713,
        1.2394659519195557,
        0.9872469902038574
      ],
      "min": [
        -1.2364779710769653,
        -1.2394989728927612,
        -1.8505680561065674
      ],
      "type": "VEC3"
    },
    {
      "bufferView": 2,
      "byteOffset": 101376,
      "componentType": 5126,
      "count": 8448,
      "max": [
        0.9999579191207886,
        0.9999390840530396,
        0.9999964237213135
      ],
      "min": [
        -0.9999545812606812,
        -0.9999390840530396,
        -0.9999958276748657
      ],
      "type": "VEC3"
    },
    {
      "bufferView": 3,
      "componentType": 5126,
      "count": 8448,
      "max": [
        0.9987778663635254,
        0.999998152256012,
        0.9998981356620789,
        1.0
      ],
      "min": [
        -0.9985684752464294,
        -1.0,
        -0.9977517127990723,
        -1.0
      ],
      "type": "VEC4"
    },
    {
      "bufferView": 1,
      "componentType": 5126,
      "count": 8448,
      "max": [
        0.9612770080566406,
        0.9998360276222229
      ],
      "min": [
        0.00016500000492669642,
        0.00016500000492669642
      ],
      "type": "VEC2"
    },
    {
      "bufferView": 0,
      "componentType": 5125,
      "count": 12672,
      "type": "SCALAR"
    }
  ],
  "asset": {
    "extras": {
      "author": "iperbole (https://sketchfab.com/iperbole)",
      "license": "CC-BY-4.0 (http://creativecommons.org/licenses/by/4.0/)",
      "source": "https://sketchfab.com/3d-models/plastic-chair-ef34e3f4c45348cfa92b993f3fc44531",
      "title": "Plastic chair"
    },
    "generator": "Sketchfab-12.65.0",
    "version": "2.0"
  },
  "bufferViews": [
    {
      "buffer": 0,
      "byteLength": 50688,
      "name": "floatBufferViews",
      "target": 34963
    },
    {
      "buffer": 0,
      "byteLength": 67584,
      "byteOffset": 50688,
      "byteStride": 8,
      "name": "floatBufferViews",
      "target": 34962
    },
    {
      "buffer": 0,
      "byteLength": 202752,
      "byteOffset": 118272,
      "byteStride": 12,
      "name": "floatBufferViews",
      "target": 34962
    },
    {
      "buffer": 0,
      "byteLength": 135168,
      "byteOffset": 321024,
      "byteStride": 16,
      "name": "floatBufferViews",
      "target": 34962
    }
  ],
  "buffers": [
    {
      "byteLength": 456192,
      "uri": "scene.bin"
    }
  ],
  "images": [
    {
      "uri": "textures/Material.002_metallicRoughness.png"
    },
    {
      "uri": "textures/Material.002_normal.png"
    }
  ],
  "materials": [
    {
      "doubleSided": true,
      "name": "Material.002",
      "normalTexture": {
        "index": 1
      },
      "pbrMetallicRoughness": {
        "baseColorFactor": [
          0.230369645793309,
          0.046431411885181934,
          0.042649190522439144,
          1.0
        ],
        "metallicFactor": 0.0,
        "metallicRoughnessTexture": {
          "index": 0
        },
        "roughnessFactor": 0.5992662921641607
      }
    }
  ],
  "meshes": [
    {
      "name": "Object_0",
      "primitives": [
        {
          "attributes": {
            "NORMAL": 1,
            "POSITION": 0,
            "TANGENT": 2,
            "TEXCOORD_0": 3
          },
          "indices": 4,
          "material": 0,
          "mode": 4
        }
      ]
    }
  ],
  "nodes": [
    {
      "children": [
        1
      ],
      "matrix": [
        1.0,
        0.0,
        0.0,
        0.0,
        0.0,
        2.220446049250313e-16,
        -1.0,
        0.0,
        0.0,
        1.0,
        2.220446049250313e-16,
        0.0,
        0.0,
        0.0,
        0.0,
        1.0
      ],
      "name": "Sketchfab_model"
    },
    {
      "children": [
        2
      ],
      "name": "chair.obj.cleaner.materialmerger.gles"
    },
    {
      "mesh": 0,
      "name": "Object_2"
    }
  ],
  "samplers": [
    {
      "magFilter": 9729,
      "minFilter": 9987,
      "wrapS": 10497,
      "wrapT": 10497
    }
  ],
  "scene": 0,
  "scenes": [
    {
      "name": "Sketchfab_Scene",
      "nodes": [
        0
      ]
    }
  ],
  "textures": [
    {
      "sampler": 0,
      "source": 0
    },
    {
      "sampler": 0,
      "source": 1
    }
  ]
}
