{
  "accessors": [
    {
      "bufferView": 2,
      "componentType": 5126,
      "count": 1608,
      "max": [
        22.59969711303711,
        32.16905975341797,
        0.08444976806640625
      ],
      "min": [
        -21.473186492919922,
        -151.669677734375,
        -42.65778350830078
      ],
      "type": "VEC3"
    },
    {
      "bufferView": 2,
      "byteOffset": 19296,
      "componentType": 5126,
      "count": 1608,
      "max": [
        1.0,
        1.0,
        1.0
      ],
      "min": [
        -1.0,
        -1.0,
        -1.0
      ],
      "type": "VEC3"
    },
    {
      "bufferView": 1,
      "componentType": 5126,
      "count": 1608,
      "max": [
        1.0,
        1.0
      ],
      "min": [
        0.0,
        0.0
      ],
      "type": "VEC2"
    },
    {
      "bufferView": 0,
      "componentType": 5125,
      "count": 3132,
      "type": "SCALAR"
    },
    {
      "bufferView": 2,
      "byteOffset": 38592,
      "componentType": 5126,
      "count": 557,
      "max": [
        22.59969711303711,
        2.757396697998047,
        0.08444976806640625
      ],
      "min": [
        -19.47640037536621,
        -151.66970825195313,
        -42.619441986083984
      ],
      "type": "VEC3"
    },
    {
      "bufferView": 2,
      "byteOffset": 45276,
      "componentType": 5126,
      "count": 557,
      "max": [
        1.0,
        1.0,
        1.0
      ],
      "min": [
        -1.0,
        -1.0,
        -1.0
      ],
      "type": "VEC3"
    },
    {
      "bufferView": 1,
      "byteOffset": 12864,
      "componentType": 5126,
      "count": 557,
      "max": [
        0.7549978494644165,
        0.7691196799278259
      ],
      "min": [
        0.08664396405220032,
        -0.0004382133483886719
      ],
      "type": "VEC2"
    },
    {
      "bufferView": 0,
      "byteOffset": 12528,
      "componentType": 5125,
      "count": 1041,
      "type": "SCALAR"
    },
    {
      "bufferView": 2,
      "byteOffset": 51960,
      "componentType": 5126,
      "count": 140,
      "max": [
        15.054858207702637,
        32.16905975341797,
        0.08444976806640625
      ],
      "min": [
        -21.473186492919922,
        -151.669677734375,
        -42.65778350830078
      ],
      "type": "VEC3"
    },
    {
      "bufferView": 2,
      "byteOffset": 53640,
      "componentType": 5126,
      "count": 140,
      "max": [
        1.0,
        1.0,
        1.0
      ],
      "min": [
        -1.0,
        -1.0,
        -1.0
      ],
      "type": "VEC3"
    },
    {
      "bufferView": 1,
      "byteOffset": 17320,
      "componentType": 5126,
      "count": 140,
      "max": [
        0.7549978494644165,
        1.0
      ],
      "min": [
        0.0,
        0.0023339390754699707
      ],
      "type": "VEC2"
    },
    {
      "bufferView": 0,
      "byteOffset": 16692,
      "componentType": 5125,
      "count": 234,
      "type": "SCALAR"
    },
    {
      "bufferView": 2,
      "byteOffset": 55320,
      "componentType": 5126,
      "count": 24,
      "max": [
        19.674484252929688,
        3.382343292236328,
        21.252788543701172
      ],
      "min": [
        -19.674488067626953,
        -3.382343292236328,
        -0.0
      ],
      "type": "VEC3"
    },
    {
      "bufferView": 2,
      "byteOffset": 55608,
      "componentType": 5126,
      "count": 24,
      "max": [
        1.0,
        1.0,
        1.0
      ],
      "min": [
        -1.0,
        -1.0,
        -1.0
      ],
      "type": "VEC3"
    },
    {
      "bufferView": 1,
      "byteOffset": 18440,
      "componentType": 5126,
      "count": 24,
      "max": [
        0.9460669159889221,
        1.0
      ],
      "min": [
        1.1516608928443736e-14,
        1.1920928955078125e-07
      ],
      "type": "VEC2"
    },
    {
      "bufferView": 0,
      "byteOffset": 17628,
      "componentType": 5125,
      "count": 36,
      "type": "SCALAR"
    },
    {
      "bufferView": 2,
      "byteOffset": 55896,
      "componentType": 5126,
      "count": 776,
      "max": [
        4.535993576049805,
        22.952346801757813,
        18.12721061706543
      ],
      "min": [
        -10.506895065307617,
        2.111896514892578,
        16.12721061706543
      ],
      "type": "VEC3"
    },
    {
      "bufferView": 2,
      "byteOffset": 65208,
      "componentType": 5126,
      "count": 776,
      "max": [
        1.0,
        1.0,
        1.0
      ],
      "min": [
        -1.0,
        -1.0,
        -1.0
      ],
      "type": "VEC3"
    },
    {
      "bufferView": 1,
      "byteOffset": 18632,
      "componentType": 5126,
      "count": 776,
      "max": [
        0.7173430323600769,
        0.35782116651535034
      ],
      "min": [
        -4.12346201628111e-09,
        0.106453537940979
      ],
      "type": "VEC2"
    },
    {
      "bufferView": 0,
      "byteOffset": 17772,
      "componentType": 5125,
      "count": 1530,
      "type": "SCALAR"
    },
    {
      "bufferView": 2,
      "byteOffset": 74520,
      "componentType": 5126,
      "count": 24,
      "max": [
        2.0,
        1.0,
        -0.0
      ],
      "min": [
        0.0,
        -1.0,
        -2.0
      ],
      "type": "VEC3"
    },
    {
      "bufferView": 2,
      "byteOffset": 74808,
      "componentType": 5126,
      "count": 24,
      "max": [
        1.0,
        1.0,
        1.0
      ],
      "min": [
        -1.0,
        -1.0,
        -1.0
      ],
      "type": "VEC3"
    },
    {
      "bufferView": 1,
      "byteOffset": 24840,
      "componentType": 5126,
      "count": 24,
      "max": [
        1.3322925567626953,
        1.1243284940719604
      ],
      "min": [
        -0.32609695196151733,
        -0.12208890914916992
      ],
      "type": "VEC2"
    },
    {
      "bufferView": 0,
      "byteOffset": 23892,
      "componentType": 5125,
      "count": 36,
      "type": "SCALAR"
    },
    {
      "bufferView": 2,
      "byteOffset": 75096,
      "componentType": 5126,
      "count": 515,
      "max": [
        7.785950660705566,
        0.53403639793396,
        -1.5003972053527832
      ],
      "min": [
        1.6243882179260254,
        -0.0005924999713897705,
        -1.6102291345596313
      ],
      "type": "VEC3"
    },
    {
      "bufferView": 2,
      "byteOffset": 81276,
      "componentType": 5126,
      "count": 515,
      "max": [
        1.0,
        1.0,
        1.0
      ],
      "min": [
        -1.0,
        -1.0,
        -1.0
      ],
      "type": "VEC3"
    },
    {
      "bufferView": 1,
      "byteOffset": 25032,
      "componentType": 5126,
      "count": 515,
      "max": [
        1.3210639953613281,
        1.3408150672912598
      ],
      "min": [
        -0.3418477177619934,
        -0.32807493209838867
      ],
      "type": "VEC2"
    },
    {
      "bufferView": 0,
      "byteOffset": 24036,
      "componentType": 5125,
      "count": 1116,
      "type": "SCALAR"
    }
  ],
  "asset": {
    "extras": {
      "author": "himanshusolanki1120 (https://sketchfab.com/himanshusolanki1120)",
      "license": "CC-BY-4.0 (http://creativecommons.org/licenses/by/4.0/)",
      "source": "https://sketchfab.com/3d-models/wooden-cabinet-low-poly-model-282e883a17ff46efa18dbe79a4330d8f",
      "title": "Wooden Cabinet Low Poly Model"
    },
    "generator": "Sketchfab-16.74.0",
    "version": "2.0"
  },
  "bufferViews": [
    {
      "buffer": 0,
      "byteLength": 28500,
      "name": "floatBufferViews",
      "target": 34963
    },
    {
      "buffer": 0,
      "byteLength": 29152,
      "byteOffset": 28500,
      "byteStride": 8,
      "name": "floatBufferViews",
      "target": 34962
    },
    {
      "buffer": 0,
      "byteLength": 87456,
      "byteOffset": 57652,
      "byteStride": 12,
      "name": "floatBufferViews",
      "target": 34962
    }
  ],
  "buffers": [
    {
      "byteLength": 145108,
      "uri": "scene.bin"
    }
  ],
  "images": [
    {
      "uri": "textures/Material.001_baseColor.jpeg"
    }
  ],
  "materials": [
    {
      "doubleSided": true,
      "name": "Material.004",
      "pbrMetallicRoughness": {
        "baseColorFactor": [
          0.13428,
          0.13428,
          0.13428,
          1.0
        ],
        "metallicFactor": 0.8,
        "roughnessFactor": 0.5
      }
    },
    {
      "doubleSided": true,
      "name": "Material.001",
      "pbrMetallicRoughness": {
        "baseColorTexture": {
          "index": 0
        },
        "metallicFactor": 0.0,
        "roughnessFactor": 0.5
      }
    },
    {
      "doubleSided": true,
      "name": "Material.003",
      "pbrMetallicRoughness": {
        "baseColorFactor": [
          0.0,
          0.0,
          0.0,
          1.0
        ],
        "metallicFactor": 0.0,
        "roughnessFactor": 0.5
      }
    }
  ],
  "meshes": [
    {
      "name": "Object_0",
      "primitives": [
        {
          "attributes": {
            "NORMAL": 1,
            "POSITION": 0,
            "TEXCOORD_0": 2
          },
          "indices": 3,
          "material": 0,
          "mode": 4
        }
      ]
    },
    {
      "name": "Object_1",
      "primitives": [
        {
          "attributes": {
            "NORMAL": 5,
            "POSITION": 4,
            "TEXCOORD_0": 6
          },
          "indices": 7,
          "material": 1,
          "mode": 4
        }
      ]
    },
    {
      "name": "Object_2",
      "primitives": [
        {
          "attributes": {
            "NORMAL": 9,
            "POSITION": 8,
            "TEXCOORD_0": 10
          },
          "indices": 11,
          "material": 2,
          "mode": 4
        }
      ]
    },
    {
      "name": "Object_3",
      "primitives": [
        {
          "attributes": {
            "NORMAL": 13,
            "POSITION": 12,
            "TEXCOORD_0": 14
          },
          "indices": 15,
          "material": 1,
          "mode": 4
        }
      ]
    },
    {
      "name": "Object_4",
      "primitives": [
        {
          "attributes": {
            "NORMAL": 17,
            "POSITION": 16,
            "TEXCOORD_0": 18
          },
          "indices": 19,
          "material": 0,
          "mode": 4
        }
      ]
    },
    {
      "name": "Object_5",
      "primitives": [
        {
          "attributes": {
            "NORMAL": 21,
            "POSITION": 20,
            "TEXCOORD_0": 22
          },
          "indices": 23,
          "material": 1,
          "mode": 4
        }
      ]
    },
    {
      "name": "Object_6",
      "primitives": [
        {
          "attributes": {
            "NORMAL": 25,
            "POSITION": 24,
            "TEXCOORD_0": 26
          },
          "indices": 27,
          "material": 0,
          "mode": 4
        }
      ]
    }
  ],
  "nodes": [
    {
      "children": [
        1
      ],
      "matrix": [
        1.0,
        0.0,
        0.0,
        0.0,
        0.0,
        2.220446049250313e-16,
        -1.0,
        0.0,
        0.0,
        1.0,
        2.220446049250313e-16,
        0.0,
        0.0,
        0.0,
        0.0,
        1.0
      ],
      "name": "Sketchfab_model"
    },
    {
      "children": [
        2
      ],
      "name": "root"
    },
    {
      "children": [
        3,
        7,
        10
      ],
      "matrix": [
        1.0,
        0.0,
        0.0,
        0.0,
        0.0,
        2.220446049250313e-16,
        1.0,
        0.0,
        0.0,
        -1.0,
        2.220446049250313e-16,
        0.0,
        0.0,
        0.0,
        0.0,
        1.0
      ],
      "name": "GLTF_SceneRootNode"
    },
    {
      "children": [
        4,
        5,
        6
      ],
      "matrix": [
        -4.090683540642425e-08,
        -0.242644682526585,
        0.0,
        0.0,
        0.02891898900270421,
        -4.875377077856228e-09,
        0.0,
        0.0,
        0.0,
        0.0,
        0.19920942187309265,
        0.0,
        2.153196334838867,
        6.8846540451049805,
        1.9110703468322754,
        1.0
      ],
      "name": "Cylinder.001_1"
    },
    {
      "mesh": 0,
      "name": "Object_4"
    },
    {
      "mesh": 1,
      "name": "Object_5"
    },
    {
      "mesh": 2,
      "name": "Object_6"
    },
    {
      "children": [
        8,
        9
      ],
      "matrix": [
        -4.090683540642425e-08,
        -0.242644682526585,
        -0.0,
        0.0,
        0.02891898900270421,
        -4.875377077856228e-09,
        0.0,
        0.0,
        0.0,
        0.0,
        0.19920942187309265,
        0.0,
        2.2510101795196533,
        6.884654998779297,
        -6.631628036499023,
        1.0
      ],
      "name": "Cylinder.002_4"
    },
    {
      "mesh": 3,
      "name": "Object_8"
    },
    {
      "mesh": 4,
      "name": "Object_9"
    },
    {
      "children": [
        11,
        12
      ],
      "matrix": [
        0.09777716779211092,
        0.0,
        0.0026691035010000157,
        0.0,
        0.0,
        4.773909091949463,
        0.0,
        0.0,
        -0.05776463668910877,
        0.0,
        2.1160897551875344,
        0.0,
        2.095468044281006,
        6.884654521942139,
        1.9076131582260132,
        1.0
      ],
      "name": "Cube.004_7"
    },
    {
      "mesh": 5,
      "name": "Object_11"
    },
    {
      "mesh": 6,
      "name": "Object_12"
    }
  ],
  "samplers": [
    {
      "magFilter": 9729,
      "minFilter": 9987,
      "wrapS": 10497,
      "wrapT": 10497
    }
  ],
  "scene": 0,
  "scenes": [
    {
      "name": "Sketchfab_Scene",
      "nodes": [
        0
      ]
    }
  ],
  "textures": [
    {
      "sampler": 0,
      "source": 0
    }
  ]
}
