{
  "accessors": [
    {
      "bufferView": 2,
      "componentType": 5126,
      "count": 18865,
      "max": [
        24.628896713256836,
        106.72386932373047,
        25.624710083007813
      ],
      "min": [
        -24.628896713256836,
        0.0,
        -25.624710083007813
      ],
      "type": "VEC3"
    },
    {
      "bufferView": 2,
      "byteOffset": 226380,
      "componentType": 5126,
      "count": 18865,
      "max": [
        1.0,
        1.0,
        1.0
      ],
      "min": [
        -1.0,
        -1.0,
        -1.0
      ],
      "type": "VEC3"
    },
    {
      "bufferView": 1,
      "componentType": 5126,
      "count": 18865,
      "max": [
        0.9878403544425964,
        0.9980318546295166
      ],
      "min": [
        -0.00608089379966259,
        0.0007537603378295898
      ],
      "type": "VEC2"
    },
    {
      "bufferView": 0,
      "componentType": 5125,
      "count": 73302,
      "type": "SCALAR"
    },
    {
      "bufferView": 2,
      "byteOffset": 452760,
      "componentType": 5126,
      "count": 18865,
      "max": [
        24.628896713256836,
        106.72386932373047,
        25.624710083007813
      ],
      "min": [
        -24.628896713256836,
        0.0,
        -25.624710083007813
      ],
      "type": "VEC3"
    },
    {
      "bufferView": 2,
      "byteOffset": 679140,
      "componentType": 5126,
      "count": 18865,
      "max": [
        1.0,
        1.0,
        1.0
      ],
      "min": [
        -1.0,
        -1.0,
        -1.0
      ],
      "type": "VEC3"
    },
    {
      "bufferView": 1,
      "byteOffset": 150920,
      "componentType": 5126,
      "count": 18865,
      "max": [
        0.9878403544425964,
        0.9980318546295166
      ],
      "min": [
        -0.00608089379966259,
        0.0007537603378295898
      ],
      "type": "VEC2"
    },
    {
      "bufferView": 0,
      "byteOffset": 293208,
      "componentType": 5125,
      "count": 73302,
      "type": "SCALAR"
    },
    {
      "bufferView": 2,
      "byteOffset": 905520,
      "componentType": 5126,
      "count": 18865,
      "max": [
        24.628896713256836,
        106.72386932373047,
        25.624710083007813
      ],
      "min": [
        -24.628896713256836,
        0.0,
        -25.624710083007813
      ],
      "type": "VEC3"
    },
    {
      "bufferView": 2,
      "byteOffset": 1131900,
      "componentType": 5126,
      "count": 18865,
      "max": [
        1.0,
        1.0,
        1.0
      ],
      "min": [
        -1.0,
        -1.0,
        -1.0
      ],
      "type": "VEC3"
    },
    {
      "bufferView": 1,
      "byteOffset": 301840,
      "componentType": 5126,
      "count": 18865,
      "max": [
        0.9878403544425964,
        0.9980318546295166
      ],
      "min": [
        -0.00608089379966259,
        0.0007537603378295898
      ],
      "type": "VEC2"
    },
    {
      "bufferView": 0,
      "byteOffset": 586416,
      "componentType": 5125,
      "count": 73302,
      "type": "SCALAR"
    }
  ],
  "asset": {
    "extras": {
      "author": "Mehdi Shahsavan (https://sketchfab.com/ahmagh2e)",
      "license": "CC-BY-4.0 (http://creativecommons.org/licenses/by/4.0/)",
      "source": "https://sketchfab.com/3d-models/wooden-chair-9mb-f49ef941f78b47d4b401a4191d0d7fdc",
      "title": "Wooden Chair - 9MB"
    },
    "generator": "Sketchfab-16.16.0",
    "version": "2.0"
  },
  "bufferViews": [
    {
      "buffer": 0,
      "byteLength": 879624,
      "name": "floatBufferViews",
      "target": 34963
    },
    {
      "buffer": 0,
      "byteLength": 452760,
      "byteOffset": 879624,
      "byteStride": 8,
      "name": "floatBufferViews",
      "target": 34962
    },
    {
      "buffer": 0,
      "byteLength": 1358280,
      "byteOffset": 1332384,
      "byteStride": 12,
      "name": "floatBufferViews",
      "target": 34962
    }
  ],
  "buffers": [
    {
      "byteLength": 2690664,
      "uri": "scene.bin"
    }
  ],
  "images": [
    {
      "uri": "textures/Scene_-_Root_baseColor.png"
    },
    {
      "uri": "textures/Scene_-_Root_metallicRoughness.png"
    }
  ],
  "materials": [
    {
      "doubleSided": true,
      "name": "Scene_-_Root",
      "pbrMetallicRoughness": {
        "baseColorTexture": {
          "index": 0
        },
        "metallicFactor": 0.0,
        "metallicRoughnessTexture": {
          "index": 1
        }
      }
    }
  ],
  "meshes": [
    {
      "name": "01__0",
      "primitives": [
        {
          "attributes": {
            "NORMAL": 1,
            "POSITION": 0,
            "TEXCOORD_0": 2
          },
          "indices": 3,
          "material": 0,
          "mode": 4
        }
      ]
    },
    {
      "name": "02__0",
      "primitives": [
        {
          "attributes": {
            "NORMAL": 5,
            "POSITION": 4,
            "TEXCOORD_0": 6
          },
          "indices": 7,
          "material": 0,
          "mode": 4
        }
      ]
    },
    {
      "name": "03__0",
      "primitives": [
        {
          "attributes": {
            "NORMAL": 9,
            "POSITION": 8,
            "TEXCOORD_0": 10
          },
          "indices": 11,
          "material": 0,
          "mode": 4
        }
      ]
    }
  ],
  "nodes": [
    {
      "children": [
        1
      ],
      "matrix": [
        1.0,
        0.0,
        0.0,
        0.0,
        0.0,
        2.220446049250313e-16,
        -1.0,
        0.0,
        0.0,
        1.0,
        2.220446049250313e-16,
        0.0,
        0.0,
        0.0,
        0.0,
        1.0
      ],
      "name": "Sketchfab_model"
    },
    {
      "children": [
        2
      ],
      "matrix": [
        0.009999999776482582,
        0.0,
        0.0,
        0.0,
        0.0,
        0.0,
        0.009999999776482582,
        0.0,
        0.0,
        -0.009999999776482582,
        0.0,
        0.0,
        0.0,
        0.0,
        0.0,
        1.0
      ],
      "name": "23968891734545fbb287505dcbfae63b.fbx"
    },
    {
      "children": [
        3,
        5,
        7,
        9
      ],
      "name": "RootNode"
    },
    {
      "children": [
        4
      ],
      "matrix": [
        -0.520834383155244,
        -0.32914635278483506,
        -0.7876510799660836,
        0.0,
        -0.1815467167794964,
        0.9442789198369521,
        -0.2745507442680577,
        0.0,
        0.8341296871289754,
        1.3877787807814457e-16,
        -0.5515683684278117,
        0.0,
        292.3077697753906,
        239.26048278808594,
        381.67022705078125,
        1.0
      ],
      "name": "CINEMA_4D_Editor"
    },
    {
      "name": "Object_4"
    },
    {
      "children": [
        6
      ],
      "matrix": [
        0.9612996523606924,
        0.0,
        -0.2755049516273926,
        0.0,
        0.0,
        1.0,
        0.0,
        0.0,
        0.2755049516273926,
        0.0,
        0.9612996523606924,
        0.0,
        75.18074035644531,
        4.565567970275879,
        0.0,
        1.0
      ],
      "name": "01"
    },
    {
      "mesh": 0,
      "name": "01__0"
    },
    {
      "children": [
        8
      ],
      "matrix": [
        0.6300327371297596,
        0.0,
        0.7765685740131282,
        0.0,
        0.0,
        1.0,
        0.0,
        0.0,
        -0.7765685740131282,
        0.0,
        0.6300327371297596,
        0.0,
        -73.97245025634766,
        4.565567970275879,
        0.0,
        1.0
      ],
      "name": "02"
    },
    {
      "mesh": 1,
      "name": "02__0"
    },
    {
      "children": [
        10
      ],
      "matrix": [
        1.0,
        0.0,
        0.0,
        0.0,
        0.0,
        1.0,
        0.0,
        0.0,
        0.0,
        0.0,
        1.0,
        0.0,
        0.0,
        4.565567970275879,
        0.0,
        1.0
      ],
      "name": "03"
    },
    {
      "mesh": 2,
      "name": "03__0"
    }
  ],
  "samplers": [
    {
      "magFilter": 9729,
      "minFilter": 9987,
      "wrapS": 10497,
      "wrapT": 10497
    }
  ],
  "scene": 0,
  "scenes": [
    {
      "name": "Sketchfab_Scene",
      "nodes": [
        0
      ]
    }
  ],
  "textures": [
    {
      "sampler": 0,
      "source": 0
    },
    {
      "sampler": 0,
      "source": 1
    }
  ]
}
