{
  "accessors": [
    {
      "bufferView": 2,
      "componentType": 5126,
      "count": 840,
      "max": [
        28.515625,
        10.3125,
        45.3125
      ],
      "min": [
        -28.125,
        -1.5625,
        -45.3125
      ],
      "type": "VEC3"
    },
    {
      "bufferView": 2,
      "byteOffset": 10080,
      "componentType": 5126,
      "count": 840,
      "max": [
        1.0,
        1.0,
        1.0
      ],
      "min": [
        -1.0,
        -1.0,
        -1.0
      ],
      "type": "VEC3"
    },
    {
      "bufferView": 1,
      "componentType": 5126,
      "count": 840,
      "max": [
        0.921875,
        1.0
      ],
      "min": [
        0.0,
        0.13931407034397125
      ],
      "type": "VEC2"
    },
    {
      "bufferView": 1,
      "byteOffset": 6720,
      "componentType": 5126,
      "count": 840,
      "max": [
        0.921875,
        1.0
      ],
      "min": [
        0.0,
        0.13931407034397125
      ],
      "type": "VEC2"
    },
    {
      "bufferView": 1,
      "byteOffset": 13440,
      "componentType": 5126,
      "count": 840,
      "max": [
        0.921875,
        1.0
      ],
      "min": [
        0.0,
        0.13931407034397125
      ],
      "type": "VEC2"
    },
    {
      "bufferView": 1,
      "byteOffset": 20160,
      "componentType": 5126,
      "count": 840,
      "max": [
        0.921875,
        1.0
      ],
      "min": [
        0.0,
        0.13931407034397125
      ],
      "type": "VEC2"
    },
    {
      "bufferView": 1,
      "byteOffset": 26880,
      "componentType": 5126,
      "count": 840,
      "max": [
        0.921875,
        1.0
      ],
      "min": [
        0.0,
        0.13931407034397125
      ],
      "type": "VEC2"
    },
    {
      "bufferView": 1,
      "byteOffset": 33600,
      "componentType": 5126,
      "count": 840,
      "max": [
        0.921875,
        1.0
      ],
      "min": [
        0.0,
        0.13931407034397125
      ],
      "type": "VEC2"
    },
    {
      "bufferView": 1,
      "byteOffset": 40320,
      "componentType": 5126,
      "count": 840,
      "max": [
        0.921875,
        1.0
      ],
      "min": [
        0.0,
        0.13931407034397125
      ],
      "type": "VEC2"
    },
    {
      "bufferView": 1,
      "byteOffset": 47040,
      "componentType": 5126,
      "count": 840,
      "max": [
        0.921875,
        1.0
      ],
      "min": [
        0.0,
        0.13931407034397125
      ],
      "type": "VEC2"
    },
    {
      "bufferView": 1,
      "byteOffset": 53760,
      "componentType": 5126,
      "count": 840,
      "max": [
        0.921875,
        1.0
      ],
      "min": [
        0.0,
        0.13931407034397125
      ],
      "type": "VEC2"
    },
    {
      "bufferView": 1,
      "byteOffset": 60480,
      "componentType": 5126,
      "count": 840,
      "max": [
        0.921875,
        1.0
      ],
      "min": [
        0.0,
        0.13931407034397125
      ],
      "type": "VEC2"
    },
    {
      "bufferView": 0,
      "componentType": 5125,
      "count": 1548,
      "type": "SCALAR"
    },
    {
      "bufferView": 2,
      "byteOffset": 20160,
      "componentType": 5126,
      "count": 794,
      "max": [
        9.375,
        6.25,
        31.25
      ],
      "min": [
        -12.5,
        -3.125,
        9.375
      ],
      "type": "VEC3"
    },
    {
      "bufferView": 2,
      "byteOffset": 29688,
      "componentType": 5126,
      "count": 794,
      "max": [
        1.0,
        0.9965458512306213,
        1.0
      ],
      "min": [
        -1.0,
        -0.986393928527832,
        -1.0
      ],
      "type": "VEC3"
    },
    {
      "bufferView": 1,
      "byteOffset": 67200,
      "componentType": 5126,
      "count": 794,
      "max": [
        0.9375,
        1.0
      ],
      "min": [
        0.0,
        0.0625
      ],
      "type": "VEC2"
    },
    {
      "bufferView": 1,
      "byteOffset": 73552,
      "componentType": 5126,
      "count": 794,
      "max": [
        0.9375,
        1.0
      ],
      "min": [
        0.0,
        0.0625
      ],
      "type": "VEC2"
    },
    {
      "bufferView": 1,
      "byteOffset": 79904,
      "componentType": 5126,
      "count": 794,
      "max": [
        0.9375,
        1.0
      ],
      "min": [
        0.0,
        0.0625
      ],
      "type": "VEC2"
    },
    {
      "bufferView": 1,
      "byteOffset": 86256,
      "componentType": 5126,
      "count": 794,
      "max": [
        0.9375,
        1.0
      ],
      "min": [
        0.0,
        0.0625
      ],
      "type": "VEC2"
    },
    {
      "bufferView": 1,
      "byteOffset": 92608,
      "componentType": 5126,
      "count": 794,
      "max": [
        0.9375,
        1.0
      ],
      "min": [
        0.0,
        0.0625
      ],
      "type": "VEC2"
    },
    {
      "bufferView": 1,
      "byteOffset": 98960,
      "componentType": 5126,
      "count": 794,
      "max": [
        0.9375,
        1.0
      ],
      "min": [
        0.0,
        0.0625
      ],
      "type": "VEC2"
    },
    {
      "bufferView": 1,
      "byteOffset": 105312,
      "componentType": 5126,
      "count": 794,
      "max": [
        0.9375,
        1.0
      ],
      "min": [
        0.0,
        0.0625
      ],
      "type": "VEC2"
    },
    {
      "bufferView": 1,
      "byteOffset": 111664,
      "componentType": 5126,
      "count": 794,
      "max": [
        0.9375,
        1.0
      ],
      "min": [
        0.0,
        0.0625
      ],
      "type": "VEC2"
    },
    {
      "bufferView": 1,
      "byteOffset": 118016,
      "componentType": 5126,
      "count": 794,
      "max": [
        0.9375,
        1.0
      ],
      "min": [
        0.0,
        0.0625
      ],
      "type": "VEC2"
    },
    {
      "bufferView": 1,
      "byteOffset": 124368,
      "componentType": 5126,
      "count": 794,
      "max": [
        0.9375,
        1.0
      ],
      "min": [
        0.0,
        0.0625
      ],
      "type": "VEC2"
    },
    {
      "bufferView": 0,
      "byteOffset": 6192,
      "componentType": 5125,
      "count": 1194,
      "type": "SCALAR"
    },
    {
      "bufferView": 2,
      "byteOffset": 39216,
      "componentType": 5126,
      "count": 4,
      "max": [
        6.25,
        -1.5625,
        29.6875
      ],
      "min": [
        -9.375,
        -1.5625,
        -29.6875
      ],
      "type": "VEC3"
    },
    {
      "bufferView": 2,
      "byteOffset": 39264,
      "componentType": 5126,
      "count": 4,
      "max": [
        0.0,
        1.0,
        0.0
      ],
      "min": [
        0.0,
        1.0,
        0.0
      ],
      "type": "VEC3"
    },
    {
      "bufferView": 1,
      "byteOffset": 130720,
      "componentType": 5126,
      "count": 4,
      "max": [
        0.1875,
        1.0
      ],
      "min": [
        0.0,
        0.375
      ],
      "type": "VEC2"
    },
    {
      "bufferView": 1,
      "byteOffset": 130752,
      "componentType": 5126,
      "count": 4,
      "max": [
        0.1875,
        1.0
      ],
      "min": [
        0.0,
        0.375
      ],
      "type": "VEC2"
    },
    {
      "bufferView": 1,
      "byteOffset": 130784,
      "componentType": 5126,
      "count": 4,
      "max": [
        0.1875,
        1.0
      ],
      "min": [
        0.0,
        0.375
      ],
      "type": "VEC2"
    },
    {
      "bufferView": 1,
      "byteOffset": 130816,
      "componentType": 5126,
      "count": 4,
      "max": [
        0.1875,
        1.0
      ],
      "min": [
        0.0,
        0.375
      ],
      "type": "VEC2"
    },
    {
      "bufferView": 1,
      "byteOffset": 130848,
      "componentType": 5126,
      "count": 4,
      "max": [
        0.1875,
        1.0
      ],
      "min": [
        0.0,
        0.375
      ],
      "type": "VEC2"
    },
    {
      "bufferView": 1,
      "byteOffset": 130880,
      "componentType": 5126,
      "count": 4,
      "max": [
        0.1875,
        1.0
      ],
      "min": [
        0.0,
        0.375
      ],
      "type": "VEC2"
    },
    {
      "bufferView": 1,
      "byteOffset": 130912,
      "componentType": 5126,
      "count": 4,
      "max": [
        0.1875,
        1.0
      ],
      "min": [
        0.0,
        0.375
      ],
      "type": "VEC2"
    },
    {
      "bufferView": 1,
      "byteOffset": 130944,
      "componentType": 5126,
      "count": 4,
      "max": [
        0.1875,
        1.0
      ],
      "min": [
        0.0,
        0.375
      ],
      "type": "VEC2"
    },
    {
      "bufferView": 1,
      "byteOffset": 130976,
      "componentType": 5126,
      "count": 4,
      "max": [
        0.1875,
        1.0
      ],
      "min": [
        0.0,
        0.375
      ],
      "type": "VEC2"
    },
    {
      "bufferView": 1,
      "byteOffset": 131008,
      "componentType": 5126,
      "count": 4,
      "max": [
        0.1875,
        1.0
      ],
      "min": [
        0.0,
        0.375
      ],
      "type": "VEC2"
    },
    {
      "bufferView": 0,
      "byteOffset": 10968,
      "componentType": 5125,
      "count": 6,
      "type": "SCALAR"
    },
    {
      "bufferView": 2,
      "byteOffset": 39312,
      "componentType": 5126,
      "count": 4,
      "max": [
        6.25,
        4.6875,
        29.6875
      ],
      "min": [
        -9.375,
        4.6875,
        -29.6875
      ],
      "type": "VEC3"
    },
    {
      "bufferView": 2,
      "byteOffset": 39360,
      "componentType": 5126,
      "count": 4,
      "max": [
        0.0,
        1.0,
        0.0
      ],
      "min": [
        0.0,
        1.0,
        0.0
      ],
      "type": "VEC3"
    },
    {
      "bufferView": 1,
      "byteOffset": 131040,
      "componentType": 5126,
      "count": 4,
      "max": [
        0.1875,
        1.0
      ],
      "min": [
        0.0,
        0.375
      ],
      "type": "VEC2"
    },
    {
      "bufferView": 1,
      "byteOffset": 131072,
      "componentType": 5126,
      "count": 4,
      "max": [
        0.1875,
        1.0
      ],
      "min": [
        0.0,
        0.375
      ],
      "type": "VEC2"
    },
    {
      "bufferView": 1,
      "byteOffset": 131104,
      "componentType": 5126,
      "count": 4,
      "max": [
        0.1875,
        1.0
      ],
      "min": [
        0.0,
        0.375
      ],
      "type": "VEC2"
    },
    {
      "bufferView": 1,
      "byteOffset": 131136,
      "componentType": 5126,
      "count": 4,
      "max": [
        0.1875,
        1.0
      ],
      "min": [
        0.0,
        0.375
      ],
      "type": "VEC2"
    },
    {
      "bufferView": 1,
      "byteOffset": 131168,
      "componentType": 5126,
      "count": 4,
      "max": [
        0.1875,
        1.0
      ],
      "min": [
        0.0,
        0.375
      ],
      "type": "VEC2"
    },
    {
      "bufferView": 1,
      "byteOffset": 131200,
      "componentType": 5126,
      "count": 4,
      "max": [
        0.1875,
        1.0
      ],
      "min": [
        0.0,
        0.375
      ],
      "type": "VEC2"
    },
    {
      "bufferView": 1,
      "byteOffset": 131232,
      "componentType": 5126,
      "count": 4,
      "max": [
        0.1875,
        1.0
      ],
      "min": [
        0.0,
        0.375
      ],
      "type": "VEC2"
    },
    {
      "bufferView": 1,
      "byteOffset": 131264,
      "componentType": 5126,
      "count": 4,
      "max": [
        0.1875,
        1.0
      ],
      "min": [
        0.0,
        0.375
      ],
      "type": "VEC2"
    },
    {
      "bufferView": 1,
      "byteOffset": 131296,
      "componentType": 5126,
      "count": 4,
      "max": [
        0.1875,
        1.0
      ],
      "min": [
        0.0,
        0.375
      ],
      "type": "VEC2"
    },
    {
      "bufferView": 1,
      "byteOffset": 131328,
      "componentType": 5126,
      "count": 4,
      "max": [
        0.1875,
        1.0
      ],
      "min": [
        0.0,
        0.375
      ],
      "type": "VEC2"
    },
    {
      "bufferView": 0,
      "byteOffset": 10992,
      "componentType": 5125,
      "count": 6,
      "type": "SCALAR"
    },
    {
      "bufferView": 2,
      "byteOffset": 39408,
      "componentType": 5126,
      "count": 4,
      "max": [
        26.5625,
        5.625,
        21.875
      ],
      "min": [
        26.5625,
        0.9375,
        -21.875
      ],
      "type": "VEC3"
    },
    {
      "bufferView": 2,
      "byteOffset": 39456,
      "componentType": 5126,
      "count": 4,
      "max": [
        1.0,
        0.0,
        0.0
      ],
      "min": [
        1.0,
        0.0,
        0.0
      ],
      "type": "VEC3"
    },
    {
      "bufferView": 1,
      "byteOffset": 131360,
      "componentType": 5126,
      "count": 4,
      "max": [
        0.875,
        1.0
      ],
      "min": [
        0.0,
        0.875
      ],
      "type": "VEC2"
    },
    {
      "bufferView": 1,
      "byteOffset": 131392,
      "componentType": 5126,
      "count": 4,
      "max": [
        0.875,
        1.0
      ],
      "min": [
        0.0,
        0.875
      ],
      "type": "VEC2"
    },
    {
      "bufferView": 1,
      "byteOffset": 131424,
      "componentType": 5126,
      "count": 4,
      "max": [
        0.875,
        1.0
      ],
      "min": [
        0.0,
        0.875
      ],
      "type": "VEC2"
    },
    {
      "bufferView": 1,
      "byteOffset": 131456,
      "componentType": 5126,
      "count": 4,
      "max": [
        0.875,
        1.0
      ],
      "min": [
        0.0,
        0.875
      ],
      "type": "VEC2"
    },
    {
      "bufferView": 1,
      "byteOffset": 131488,
      "componentType": 5126,
      "count": 4,
      "max": [
        0.875,
        1.0
      ],
      "min": [
        0.0,
        0.875
      ],
      "type": "VEC2"
    },
    {
      "bufferView": 1,
      "byteOffset": 131520,
      "componentType": 5126,
      "count": 4,
      "max": [
        0.875,
        1.0
      ],
      "min": [
        0.0,
        0.875
      ],
      "type": "VEC2"
    },
    {
      "bufferView": 1,
      "byteOffset": 131552,
      "componentType": 5126,
      "count": 4,
      "max": [
        0.875,
        1.0
      ],
      "min": [
        0.0,
        0.875
      ],
      "type": "VEC2"
    },
    {
      "bufferView": 1,
      "byteOffset": 131584,
      "componentType": 5126,
      "count": 4,
      "max": [
        0.875,
        1.0
      ],
      "min": [
        0.0,
        0.875
      ],
      "type": "VEC2"
    },
    {
      "bufferView": 1,
      "byteOffset": 131616,
      "componentType": 5126,
      "count": 4,
      "max": [
        0.875,
        1.0
      ],
      "min": [
        0.0,
        0.875
      ],
      "type": "VEC2"
    },
    {
      "bufferView": 1,
      "byteOffset": 131648,
      "componentType": 5126,
      "count": 4,
      "max": [
        0.875,
        1.0
      ],
      "min": [
        0.0,
        0.875
      ],
      "type": "VEC2"
    },
    {
      "bufferView": 0,
      "byteOffset": 11016,
      "componentType": 5125,
      "count": 6,
      "type": "SCALAR"
    },
    {
      "bufferView": 2,
      "byteOffset": 39504,
      "componentType": 5126,
      "count": 794,
      "max": [
        14.0625,
        6.25,
        -4.6875
      ],
      "min": [
        -17.1875,
        -3.125,
        -35.9375
      ],
      "type": "VEC3"
    },
    {
      "bufferView": 2,
      "byteOffset": 49032,
      "componentType": 5126,
      "count": 794,
      "max": [
        1.0,
        0.9991331696510315,
        1.0
      ],
      "min": [
        -1.0,
        -0.9965458512306213,
        -1.0
      ],
      "type": "VEC3"
    },
    {
      "bufferView": 1,
      "byteOffset": 131680,
      "componentType": 5126,
      "count": 794,
      "max": [
        1.0,
        1.0
      ],
      "min": [
        0.0,
        0.0
      ],
      "type": "VEC2"
    },
    {
      "bufferView": 1,
      "byteOffset": 138032,
      "componentType": 5126,
      "count": 794,
      "max": [
        1.0,
        1.0
      ],
      "min": [
        0.0,
        0.0
      ],
      "type": "VEC2"
    },
    {
      "bufferView": 1,
      "byteOffset": 144384,
      "componentType": 5126,
      "count": 794,
      "max": [
        1.0,
        1.0
      ],
      "min": [
        0.0,
        0.0
      ],
      "type": "VEC2"
    },
    {
      "bufferView": 1,
      "byteOffset": 150736,
      "componentType": 5126,
      "count": 794,
      "max": [
        1.0,
        1.0
      ],
      "min": [
        0.0,
        0.0
      ],
      "type": "VEC2"
    },
    {
      "bufferView": 1,
      "byteOffset": 157088,
      "componentType": 5126,
      "count": 794,
      "max": [
        1.0,
        1.0
      ],
      "min": [
        0.0,
        0.0
      ],
      "type": "VEC2"
    },
    {
      "bufferView": 1,
      "byteOffset": 163440,
      "componentType": 5126,
      "count": 794,
      "max": [
        1.0,
        1.0
      ],
      "min": [
        0.0,
        0.0
      ],
      "type": "VEC2"
    },
    {
      "bufferView": 1,
      "byteOffset": 169792,
      "componentType": 5126,
      "count": 794,
      "max": [
        1.0,
        1.0
      ],
      "min": [
        0.0,
        0.0
      ],
      "type": "VEC2"
    },
    {
      "bufferView": 1,
      "byteOffset": 176144,
      "componentType": 5126,
      "count": 794,
      "max": [
        1.0,
        1.0
      ],
      "min": [
        0.0,
        0.0
      ],
      "type": "VEC2"
    },
    {
      "bufferView": 1,
      "byteOffset": 182496,
      "componentType": 5126,
      "count": 794,
      "max": [
        1.0,
        1.0
      ],
      "min": [
        0.0,
        0.0
      ],
      "type": "VEC2"
    },
    {
      "bufferView": 1,
      "byteOffset": 188848,
      "componentType": 5126,
      "count": 794,
      "max": [
        1.0,
        1.0
      ],
      "min": [
        0.0,
        0.0
      ],
      "type": "VEC2"
    },
    {
      "bufferView": 0,
      "byteOffset": 11040,
      "componentType": 5125,
      "count": 1194,
      "type": "SCALAR"
    }
  ],
  "asset": {
    "extras": {
      "author": "C. Artee (https://sketchfab.com/C_artee)",
      "license": "CC-BY-4.0 (http://creativecommons.org/licenses/by/4.0/)",
      "source": "https://sketchfab.com/3d-models/cassette-tape-low-poly-0b77741b6c464b28ac33ff20fed8369e",
      "title": "Cassette Tape Low Poly"
    },
    "generator": "Sketchfab-15.18.0",
    "version": "2.0"
  },
  "bufferViews": [
    {
      "buffer": 0,
      "byteLength": 15816,
      "name": "floatBufferViews",
      "target": 34963
    },
    {
      "buffer": 0,
      "byteLength": 195200,
      "byteOffset": 15816,
      "byteStride": 8,
      "name": "floatBufferViews",
      "target": 34962
    },
    {
      "buffer": 0,
      "byteLength": 58560,
      "byteOffset": 211016,
      "byteStride": 12,
      "name": "floatBufferViews",
      "target": 34962
    }
  ],
  "buffers": [
    {
      "byteLength": 269576,
      "uri": "scene.bin"
    }
  ],
  "extensionsUsed": [
    "KHR_materials_specular"
  ],
  "images": [
    {
      "uri": "textures/Case.png_baseColor.png"
    },
    {
      "uri": "textures/Cylinder_1_small.png_baseColor.png"
    },
    {
      "uri": "textures/Face_1.png_baseColor.png"
    },
    {
      "uri": "textures/Cylinder_2_big.png_baseColor.png"
    }
  ],
  "materials": [
    {
      "doubleSided": true,
      "extensions": {
        "KHR_materials_specular": {
          "specularColorFactor": [
            1.0,
            1.0,
            1.0
          ],
          "specularFactor": 0.0
        }
      },
      "name": "Case.png",
      "pbrMetallicRoughness": {
        "baseColorTexture": {
          "index": 0
        },
        "metallicFactor": 0.4556204361765674,
        "roughnessFactor": 0.236191196011264
      }
    },
    {
      "doubleSided": true,
      "name": "Cylinder_1_small.png",
      "pbrMetallicRoughness": {
        "baseColorTexture": {
          "index": 1
        },
        "metallicFactor": 0.0,
        "roughnessFactor": 0.6
      }
    },
    {
      "alphaCutoff": 0.7969548097670393,
      "alphaMode": "MASK",
      "doubleSided": true,
      "extensions": {
        "KHR_materials_specular": {
          "specularColorFactor": [
            1.0,
            1.0,
            1.0
          ],
          "specularFactor": 0.4739062061903426
        }
      },
      "name": "Face_1.png",
      "pbrMetallicRoughness": {
        "baseColorTexture": {
          "index": 2
        },
        "roughnessFactor": 0.6
      }
    },
    {
      "doubleSided": true,
      "name": "Band.png",
      "pbrMetallicRoughness": {
        "baseColorFactor": [
          0.0,
          0.0,
          0.0,
          1.0
        ],
        "metallicFactor": 0.0,
        "roughnessFactor": 0.6
      }
    },
    {
      "doubleSided": true,
      "name": "Cylinder_2_big.png",
      "pbrMetallicRoughness": {
        "baseColorTexture": {
          "index": 3
        },
        "metallicFactor": 0.0,
        "roughnessFactor": 0.6
      }
    }
  ],
  "meshes": [
    {
      "name": "cube_Case.png_0",
      "primitives": [
        {
          "attributes": {
            "NORMAL": 1,
            "POSITION": 0,
            "TEXCOORD_0": 2,
            "TEXCOORD_1": 3,
            "TEXCOORD_2": 4,
            "TEXCOORD_3": 5,
            "TEXCOORD_4": 6,
            "TEXCOORD_5": 7,
            "TEXCOORD_6": 8,
            "TEXCOORD_7": 9,
            "TEXCOORD_8": 10,
            "TEXCOORD_9": 11
          },
          "indices": 12,
          "material": 0,
          "mode": 4
        }
      ]
    },
    {
      "name": "cylinder_Cylinder 1 (small).png_0",
      "primitives": [
        {
          "attributes": {
            "NORMAL": 14,
            "POSITION": 13,
            "TEXCOORD_0": 15,
            "TEXCOORD_1": 16,
            "TEXCOORD_2": 17,
            "TEXCOORD_3": 18,
            "TEXCOORD_4": 19,
            "TEXCOORD_5": 20,
            "TEXCOORD_6": 21,
            "TEXCOORD_7": 22,
            "TEXCOORD_8": 23,
            "TEXCOORD_9": 24
          },
          "indices": 25,
          "material": 1,
          "mode": 4
        }
      ]
    },
    {
      "name": "plane_Face 1.png_0",
      "primitives": [
        {
          "attributes": {
            "NORMAL": 27,
            "POSITION": 26,
            "TEXCOORD_0": 28,
            "TEXCOORD_1": 29,
            "TEXCOORD_2": 30,
            "TEXCOORD_3": 31,
            "TEXCOORD_4": 32,
            "TEXCOORD_5": 33,
            "TEXCOORD_6": 34,
            "TEXCOORD_7": 35,
            "TEXCOORD_8": 36,
            "TEXCOORD_9": 37
          },
          "indices": 38,
          "material": 2,
          "mode": 4
        }
      ]
    },
    {
      "name": "plane_1_Face 1.png_0",
      "primitives": [
        {
          "attributes": {
            "NORMAL": 40,
            "POSITION": 39,
            "TEXCOORD_0": 41,
            "TEXCOORD_1": 42,
            "TEXCOORD_2": 43,
            "TEXCOORD_3": 44,
            "TEXCOORD_4": 45,
            "TEXCOORD_5": 46,
            "TEXCOORD_6": 47,
            "TEXCOORD_7": 48,
            "TEXCOORD_8": 49,
            "TEXCOORD_9": 50
          },
          "indices": 51,
          "material": 2,
          "mode": 4
        }
      ]
    },
    {
      "name": "cube_1_Band.png_0",
      "primitives": [
        {
          "attributes": {
            "NORMAL": 53,
            "POSITION": 52,
            "TEXCOORD_0": 54,
            "TEXCOORD_1": 55,
            "TEXCOORD_2": 56,
            "TEXCOORD_3": 57,
            "TEXCOORD_4": 58,
            "TEXCOORD_5": 59,
            "TEXCOORD_6": 60,
            "TEXCOORD_7": 61,
            "TEXCOORD_8": 62,
            "TEXCOORD_9": 63
          },
          "indices": 64,
          "material": 3,
          "mode": 4
        }
      ]
    },
    {
      "name": "cylinder_1_Cylinder 2 (big).png_0",
      "primitives": [
        {
          "attributes": {
            "NORMAL": 66,
            "POSITION": 65,
            "TEXCOORD_0": 67,
            "TEXCOORD_1": 68,
            "TEXCOORD_2": 69,
            "TEXCOORD_3": 70,
            "TEXCOORD_4": 71,
            "TEXCOORD_5": 72,
            "TEXCOORD_6": 73,
            "TEXCOORD_7": 74,
            "TEXCOORD_8": 75,
            "TEXCOORD_9": 76
          },
          "indices": 77,
          "material": 4,
          "mode": 4
        }
      ]
    }
  ],
  "nodes": [
    {
      "children": [
        1
      ],
      "matrix": [
        0.00022451536319452632,
        -1.4217768907546997,
        -3.156978879991667e-16,
        0.0,
        2.2863915828211324e-16,
        3.157339928227807e-16,
        -1.4217768907546997,
        0.0,
        1.4217768907546997,
        0.00022451536319452632,
        2.286890107072334e-16,
        0.0,
        0.0,
        0.0,
        0.0,
        1.0
      ],
      "name": "Sketchfab_model"
    },
    {
      "children": [
        2
      ],
      "matrix": [
        0.009999999776482582,
        0.0,
        0.0,
        0.0,
        0.0,
        0.0,
        0.009999999776482582,
        0.0,
        0.0,
        -0.009999999776482582,
        0.0,
        0.0,
        0.0,
        0.0,
        0.0,
        1.0
      ],
      "name": "1d5e5410accd46bd8eeb77f0e0c6eb97.fbx"
    },
    {
      "children": [
        3,
        5,
        7,
        9,
        11,
        13
      ],
      "name": "RootNode"
    },
    {
      "children": [
        4
      ],
      "name": "cube"
    },
    {
      "mesh": 0,
      "name": "cube_Case.png_0"
    },
    {
      "children": [
        6
      ],
      "matrix": [
        1.0,
        0.0,
        0.0,
        0.0,
        0.0,
        1.0,
        0.0,
        0.0,
        0.0,
        0.0,
        1.0,
        0.0,
        0.0,
        0.625,
        0.0,
        1.0
      ],
      "name": "cylinder"
    },
    {
      "mesh": 1,
      "name": "cylinder_Cylinder 1 (small).png_0"
    },
    {
      "children": [
        8
      ],
      "matrix": [
        1.0,
        0.0,
        0.0,
        0.0,
        0.0,
        1.0,
        0.0,
        0.0,
        0.0,
        0.0,
        1.0,
        0.0,
        0.0,
        0.625,
        0.0,
        1.0
      ],
      "name": "plane"
    },
    {
      "mesh": 2,
      "name": "plane_Face 1.png_0"
    },
    {
      "children": [
        10
      ],
      "matrix": [
        1.0,
        0.0,
        0.0,
        0.0,
        0.0,
        1.0,
        0.0,
        0.0,
        0.0,
        0.0,
        1.0,
        0.0,
        0.0,
        0.5,
        0.0,
        1.0
      ],
      "name": "plane_1"
    },
    {
      "mesh": 3,
      "name": "plane_1_Face 1.png_0"
    },
    {
      "children": [
        12
      ],
      "name": "cube_1"
    },
    {
      "mesh": 4,
      "name": "cube_1_Band.png_0"
    },
    {
      "children": [
        14
      ],
      "matrix": [
        1.0,
        0.0,
        0.0,
        0.0,
        0.0,
        1.0,
        0.0,
        0.0,
        0.0,
        0.0,
        1.0,
        0.0,
        0.0,
        0.625,
        0.0,
        1.0
      ],
      "name": "cylinder_1"
    },
    {
      "mesh": 5,
      "name": "cylinder_1_Cylinder 2 (big).png_0"
    }
  ],
  "samplers": [
    {
      "magFilter": 9728,
      "minFilter": 9728,
      "wrapS": 10497,
      "wrapT": 10497
    }
  ],
  "scene": 0,
  "scenes": [
    {
      "name": "Sketchfab_Scene",
      "nodes": [
        0
      ]
    }
  ],
  "textures": [
    {
      "sampler": 0,
      "source": 0
    },
    {
      "sampler": 0,
      "source": 1
    },
    {
      "sampler": 0,
      "source": 2
    },
    {
      "sampler": 0,
      "source": 3
    }
  ]
}
