{
  "accessors": [
    {
      "bufferView": 2,
      "componentType": 5126,
      "count": 3271,
      "max": [
        0.3209305703639984,
        0.335950642824173,
        0.8798216581344604
      ],
      "min": [
        -0.3209305703639984,
        -0.2916412651538849,
        -1.953914761543274e-05
      ],
      "type": "VEC3"
    },
    {
      "bufferView": 2,
      "byteOffset": 39252,
      "componentType": 5126,
      "count": 3271,
      "max": [
        1.0,
        0.999880850315094,
        0.9999459385871887
      ],
      "min": [
        -1.0,
        -1.0,
        -1.0
      ],
      "type": "VEC3"
    },
    {
      "bufferView": 3,
      "componentType": 5126,
      "count": 3271,
      "max": [
        1.0,
        0.9999995827674866,
        1.0,
        1.0
      ],
      "min": [
        -1.0,
        -0.9998511075973511,
        -1.0,
        -1.0
      ],
      "type": "VEC4"
    },
    {
      "bufferView": 1,
      "componentType": 5126,
      "count": 3271,
      "max": [
        0.9990473389625549,
        0.9986353516578674
      ],
      "min": [
        0.0010222232667729259,
        0.0010183033300563693
      ],
      "type": "VEC2"
    },
    {
      "bufferView": 1,
      "byteOffset": 26168,
      "componentType": 5126,
      "count": 3271,
      "max": [
        0.9990473389625549,
        0.9986353516578674
      ],
      "min": [
        0.0010222232667729259,
        0.0010183033300563693
      ],
      "type": "VEC2"
    },
    {
      "bufferView": 0,
      "componentType": 5125,
      "count": 10068,
      "type": "SCALAR"
    }
  ],
  "asset": {
    "extras": {
      "author": "Prince Obrymec (https://sketchfab.com/prince-obrymec)",
      "license": "SKETCHFAB Standard (https://sketchfab.com/licenses)",
      "source": "https://sketchfab.com/3d-models/plastic-monobloc-chair-6d694326f86e442aa3fafc1da5106488",
      "title": "Plastic Monobloc Chair"
    },
    "generator": "Sketchfab-17.8.0",
    "version": "2.0"
  },
  "bufferViews": [
    {
      "buffer": 0,
      "byteLength": 40272,
      "name": "floatBufferViews",
      "target": 34963
    },
    {
      "buffer": 0,
      "byteLength": 52336,
      "byteOffset": 40272,
      "byteStride": 8,
      "name": "floatBufferViews",
      "target": 34962
    },
    {
      "buffer": 0,
      "byteLength": 78504,
      "byteOffset": 92608,
      "byteStride": 12,
      "name": "floatBufferViews",
      "target": 34962
    },
    {
      "buffer": 0,
      "byteLength": 52336,
      "byteOffset": 171112,
      "byteStride": 16,
      "name": "floatBufferViews",
      "target": 34962
    }
  ],
  "buffers": [
    {
      "byteLength": 223448,
      "uri": "scene.bin"
    }
  ],
  "images": [
    {
      "uri": "textures/plastic_monobloc_chair_baseColor.jpeg"
    },
    {
      "uri": "textures/plastic_monobloc_chair_metallicRoughness.png"
    },
    {
      "uri": "textures/plastic_monobloc_chair_normal.png"
    }
  ],
  "materials": [
    {
      "doubleSided": true,
      "name": "plastic_monobloc_chair",
      "normalTexture": {
        "index": 2
      },
      "occlusionTexture": {
        "index": 1
      },
      "pbrMetallicRoughness": {
        "baseColorTexture": {
          "index": 0
        },
        "metallicRoughnessTexture": {
          "index": 1
        }
      }
    }
  ],
  "meshes": [
    {
      "name": "plastic_monobloc_chair_plastic_monobloc_chair_0",
      "primitives": [
        {
          "attributes": {
            "NORMAL": 1,
            "POSITION": 0,
            "TANGENT": 2,
            "TEXCOORD_0": 3,
            "TEXCOORD_1": 4
          },
          "indices": 5,
          "material": 0,
          "mode": 4
        }
      ]
    }
  ],
  "nodes": [
    {
      "children": [
        1
      ],
      "matrix": [
        1.0,
        0.0,
        0.0,
        0.0,
        0.0,
        2.220446049250313e-16,
        -1.0,
        0.0,
        0.0,
        1.0,
        2.220446049250313e-16,
        0.0,
        0.0,
        0.0,
        0.0,
        1.0
      ],
      "name": "Sketchfab_model"
    },
    {
      "children": [
        2
      ],
      "matrix": [
        0.009999999776482582,
        0.0,
        0.0,
        0.0,
        0.0,
        0.0,
        0.009999999776482582,
        0.0,
        0.0,
        -0.009999999776482582,
        0.0,
        0.0,
        0.0,
        0.0,
        0.0,
        1.0
      ],
      "name": "36fed3a4b2544428bb25ddf408707ba3.fbx"
    },
    {
      "children": [
        3
      ],
      "name": "RootNode"
    },
    {
      "children": [
        4
      ],
      "matrix": [
        100.0,
        0.0,
        0.0,
        0.0,
        0.0,
        -4.371139006309477e-06,
        -99.9999999999999,
        0.0,
        0.0,
        99.9999999999999,
        -4.371139006309477e-06,
        0.0,
        0.0,
        0.0,
        0.0,
        1.0
      ],
      "name": "plastic_monobloc_chair"
    },
    {
      "mesh": 0,
      "name": "plastic_monobloc_chair_plastic_monobloc_chair_0"
    }
  ],
  "samplers": [
    {
      "magFilter": 9729,
      "minFilter": 9987,
      "wrapS": 10497,
      "wrapT": 10497
    }
  ],
  "scene": 0,
  "scenes": [
    {
      "name": "Sketchfab_Scene",
      "nodes": [
        0
      ]
    }
  ],
  "textures": [
    {
      "sampler": 0,
      "source": 0
    },
    {
      "sampler": 0,
      "source": 1
    },
    {
      "sampler": 0,
      "source": 2
    }
  ]
}
