{
  "accessors": [
    {
      "bufferView": 2,
      "componentType": 5126,
      "count": 431,
      "max": [
        2.343414068222046,
        2.3511176109313965,
        4.080264091491699
      ],
      "min": [
        -0.15764522552490234,
        -2.322216033935547,
        -3.8197360038757324
      ],
      "type": "VEC3"
    },
    {
      "bufferView": 2,
      "byteOffset": 5172,
      "componentType": 5126,
      "count": 431,
      "max": [
        1.0,
        1.0,
        1.0
      ],
      "min": [
        -1.0,
        -1.0,
        -1.0
      ],
      "type": "VEC3"
    },
    {
      "bufferView": 1,
      "componentType": 5126,
      "count": 431,
      "max": [
        0.9390419721603394,
        0.7013170719146729
      ],
      "min": [
        0.03317289426922798,
        0.04281584918498993
      ],
      "type": "VEC2"
    },
    {
      "bufferView": 1,
      "byteOffset": 3448,
      "componentType": 5126,
      "count": 431,
      "max": [
        0.9390419721603394,
        0.7013170719146729
      ],
      "min": [
        0.03317289426922798,
        0.04281584918498993
      ],
      "type": "VEC2"
    },
    {
      "bufferView": 0,
      "componentType": 5125,
      "count": 669,
      "type": "SCALAR"
    },
    {
      "bufferView": 2,
      "byteOffset": 10344,
      "componentType": 5126,
      "count": 672,
      "max": [
        0.14235472679138184,
        1.996765375137329,
        3.445448637008667
      ],
      "min": [
        -0.057645201683044434,
        -1.9713473320007324,
        -3.2849197387695313
      ],
      "type": "VEC3"
    },
    {
      "bufferView": 2,
      "byteOffset": 18408,
      "componentType": 5126,
      "count": 672,
      "max": [
        1.0,
        1.0,
        1.0
      ],
      "min": [
        -1.0,
        -1.0,
        -1.0
      ],
      "type": "VEC3"
    },
    {
      "bufferView": 1,
      "byteOffset": 6896,
      "componentType": 5126,
      "count": 672,
      "max": [
        0.9795004725456238,
        0.9731127619743347
      ],
      "min": [
        -0.4248128831386566,
        0.021771322935819626
      ],
      "type": "VEC2"
    },
    {
      "bufferView": 0,
      "byteOffset": 2676,
      "componentType": 5125,
      "count": 984,
      "type": "SCALAR"
    },
    {
      "bufferView": 2,
      "byteOffset": 26472,
      "componentType": 5126,
      "count": 890,
      "max": [
        -0.0436474084854126,
        0.22474178671836853,
        0.438337504863739
      ],
      "min": [
        -0.3671138286590576,
        -0.20024541020393372,
        -0.5374351143836975
      ],
      "type": "VEC3"
    },
    {
      "bufferView": 2,
      "byteOffset": 37152,
      "componentType": 5126,
      "count": 890,
      "max": [
        0.9999191164970398,
        0.9999693036079407,
        0.9998617768287659
      ],
      "min": [
        -0.9909951686859131,
        -0.9999893307685852,
        -0.9998515844345093
      ],
      "type": "VEC3"
    },
    {
      "bufferView": 1,
      "byteOffset": 12272,
      "componentType": 5126,
      "count": 890,
      "max": [
        0.5000000596046448,
        1.0000001192092896
      ],
      "min": [
        0.1250000149011612,
        0.0
      ],
      "type": "VEC2"
    },
    {
      "bufferView": 0,
      "byteOffset": 6612,
      "componentType": 5125,
      "count": 4896,
      "type": "SCALAR"
    }
  ],
  "asset": {
    "extras": {
      "author": "whatever (https://sketchfab.com/yeahyeahcool213124)",
      "license": "CC-BY-4.0 (http://creativecommons.org/licenses/by/4.0/)",
      "source": "https://sketchfab.com/3d-models/wooden-closet-255fa59f16984325a96ea9e23d0ecde1",
      "title": "Wooden Closet"
    },
    "generator": "Sketchfab-17.15.0",
    "version": "2.0"
  },
  "bufferViews": [
    {
      "buffer": 0,
      "byteLength": 26196,
      "name": "floatBufferViews",
      "target": 34963
    },
    {
      "buffer": 0,
      "byteLength": 19392,
      "byteOffset": 26196,
      "byteStride": 8,
      "name": "floatBufferViews",
      "target": 34962
    },
    {
      "buffer": 0,
      "byteLength": 47832,
      "byteOffset": 45588,
      "byteStride": 12,
      "name": "floatBufferViews",
      "target": 34962
    }
  ],
  "buffers": [
    {
      "byteLength": 93420,
      "uri": "scene.bin"
    }
  ],
  "extensionsUsed": [
    "KHR_texture_transform",
    "KHR_materials_specular"
  ],
  "images": [
    {
      "uri": "textures/Base_baseColor.png"
    },
    {
      "uri": "textures/Doors_baseColor.png"
    }
  ],
  "materials": [
    {
      "doubleSided": true,
      "extensions": {
        "KHR_materials_specular": {
          "specularColorFactor": [
            1.0,
            1.0,
            1.0
          ],
          "specularFactor": 0.46171569284782576
        }
      },
      "name": "Base",
      "pbrMetallicRoughness": {
        "baseColorTexture": {
          "extensions": {
            "KHR_texture_transform": {
              "scale": [
                5.784744719200776,
                6.2883662399488776
              ]
            }
          },
          "index": 0
        },
        "metallicFactor": 0.0
      }
    },
    {
      "doubleSided": true,
      "extensions": {
        "KHR_materials_specular": {
          "specularColorFactor": [
            1.0,
            1.0,
            1.0
          ],
          "specularFactor": 0.6140971096292864
        }
      },
      "name": "Doors",
      "pbrMetallicRoughness": {
        "baseColorTexture": {
          "extensions": {
            "KHR_texture_transform": {
              "scale": [
                2.4952698930495107,
                2.4952698930495107
              ]
            }
          },
          "index": 1
        },
        "metallicFactor": 0.0
      }
    },
    {
      "doubleSided": true,
      "extensions": {
        "KHR_materials_specular": {
          "specularColorFactor": [
            1.0,
            1.0,
            1.0
          ],
          "specularFactor": 0.5409540295741854
        }
      },
      "name": "Metal",
      "pbrMetallicRoughness": {
        "baseColorFactor": [
          0.232029,
          0.232029,
          0.232029,
          1.0
        ],
        "roughnessFactor": 0.9477191839284285
      }
    }
  ],
  "meshes": [
    {
      "name": "Closet_Base_0",
      "primitives": [
        {
          "attributes": {
            "NORMAL": 1,
            "POSITION": 0,
            "TEXCOORD_0": 2,
            "TEXCOORD_1": 3
          },
          "indices": 4,
          "material": 0,
          "mode": 4
        }
      ]
    },
    {
      "name": "Closet_Doors_0",
      "primitives": [
        {
          "attributes": {
            "NORMAL": 6,
            "POSITION": 5,
            "TEXCOORD_0": 7
          },
          "indices": 8,
          "material": 1,
          "mode": 4
        }
      ]
    },
    {
      "name": "Closet_Metal_0",
      "primitives": [
        {
          "attributes": {
            "NORMAL": 10,
            "POSITION": 9,
            "TEXCOORD_0": 11
          },
          "indices": 12,
          "material": 2,
          "mode": 4
        }
      ]
    }
  ],
  "nodes": [
    {
      "children": [
        1
      ],
      "matrix": [
        0.10996650904417038,
        3.815102304184577e-16,
        -0.9939352869987488,
        0.0,
        -0.9939352869987488,
        -1.3639479224007522e-16,
        -0.10996650904417038,
        0.0,
        -1.7752095332731945e-16,
        1.0,
        3.6419763136529844e-16,
        0.0,
        0.0,
        0.0,
        0.0,
        1.0
      ],
      "name": "Sketchfab_model"
    },
    {
      "children": [
        2
      ],
      "matrix": [
        0.009999999776482582,
        0.0,
        0.0,
        0.0,
        0.0,
        0.0,
        0.009999999776482582,
        0.0,
        0.0,
        -0.009999999776482582,
        0.0,
        0.0,
        0.0,
        0.0,
        0.0,
        1.0
      ],
      "name": "09dffcf396f84dfe8f817672b8346702.fbx"
    },
    {
      "children": [
        3
      ],
      "name": "RootNode"
    },
    {
      "children": [
        4,
        5,
        6
      ],
      "matrix": [
        100.0,
        0.0,
        0.0,
        0.0,
        0.0,
        -1.629206793918314e-05,
        -99.99999999999868,
        0.0,
        0.0,
        99.99999999999868,
        -1.629206793918314e-05,
        0.0,
        0.0,
        0.0,
        0.0,
        1.0
      ],
      "name": "Closet"
    },
    {
      "mesh": 0,
      "name": "Closet_Base_0"
    },
    {
      "mesh": 1,
      "name": "Closet_Doors_0"
    },
    {
      "mesh": 2,
      "name": "Closet_Metal_0"
    }
  ],
  "samplers": [
    {
      "magFilter": 9729,
      "minFilter": 9987,
      "wrapS": 10497,
      "wrapT": 10497
    }
  ],
  "scene": 0,
  "scenes": [
    {
      "name": "Sketchfab_Scene",
      "nodes": [
        0
      ]
    }
  ],
  "textures": [
    {
      "sampler": 0,
      "source": 0
    },
    {
      "sampler": 0,
      "source": 1
    }
  ]
}
